<?xml version="1.0" encoding="UTF-8" standalone="no"?>
<svg width="943px" height="601px" viewBox="0 0 943 601" version="1.1" xmlns="http://www.w3.org/2000/svg" xmlns:xlink="http://www.w3.org/1999/xlink" xmlns:sketch="http://www.bohemiancoding.com/sketch/ns">
    <!-- Generator: Sketch 3.4.1 (15681) - http://www.bohemiancoding.com/sketch -->
    <title>skyline</title>
    <desc>Created with Sketch.</desc>
    <defs></defs>
    <g id="Page-1" stroke="none" stroke-width="1" fill="none" fill-rule="evenodd" sketch:type="MSPage">
        <g id="skyline" sketch:type="MSLayerGroup" transform="translate(1.000000, 0.000000)">
            <rect id="Rectangle-215" fill="#194C87" sketch:type="MSShapeGroup" x="0" y="0" width="941" height="600"></rect>
            <g id="skyline-copy" transform="translate(0.000000, 333.000000)" sketch:type="MSShapeGroup">
                <g id="london_eye" transform="translate(674.000000, 118.000000)" stroke="#4F77A8">
                    <ellipse id="Oval-78" stroke-width="2" cx="65.5256764" cy="65.7549264" rx="53.4333687" ry="53.5916611"></ellipse>
                    <ellipse id="Oval-79" cx="67.6459184" cy="2.15227554" rx="2.14591842" ry="2.15227554"></ellipse>
                    <ellipse id="Oval-79-Copy-8" cx="40.4382261" cy="7.22030276" rx="2.14591842" ry="2.15227554"></ellipse>
                    <ellipse id="Oval-79-Copy-9" cx="94.8536107" cy="9.24751364" rx="2.14591842" ry="2.15227554"></ellipse>
                    <ellipse id="Oval-79-Copy-4" cx="64.6228415" cy="129.866561" rx="2.14591842" ry="2.15227554"></ellipse>
                    <ellipse id="Oval-79-Copy-6" cx="2.14591842" cy="61.9549966" rx="2.14591842" ry="2.15227554"></ellipse>
                    <ellipse id="Oval-79-Copy-5" cx="128.107457" cy="62.9686021" rx="2.14591842" ry="2.15227554"></ellipse>
                    <ellipse id="Oval-79-Copy-11" cx="124.076688" cy="89.3223436" rx="2.14591842" ry="2.15227554"></ellipse>
                    <ellipse id="Oval-79-Copy-7" cx="21.2920723" cy="20.3971735" rx="2.14591842" ry="2.15227554"></ellipse>
                    <ellipse id="Oval-79-Copy-15" cx="7.18437996" cy="38.6420715" rx="2.14591842" ry="2.15227554"></ellipse>
                    <ellipse id="Oval-79-Copy" cx="16.2536107" cy="106.553636" rx="2.14591842" ry="2.15227554"></ellipse>
                    <ellipse id="Oval-79-Copy-14" cx="5.16899535" cy="87.2951327" rx="2.14591842" ry="2.15227554"></ellipse>
                    <ellipse id="Oval-79-Copy-2" cx="112.992072" cy="108.580847" rx="2.14591842" ry="2.15227554"></ellipse>
                    <ellipse id="Oval-79-Copy-12" cx="91.8305338" cy="123.784929" rx="2.14591842" ry="2.15227554"></ellipse>
                    <ellipse id="Oval-79-Copy-13" cx="35.3997646" cy="122.771323" rx="2.14591842" ry="2.15227554"></ellipse>
                    <ellipse id="Oval-79-Copy-3" cx="113.999765" cy="24.4515953" rx="2.14591842" ry="2.15227554"></ellipse>
                    <ellipse id="Oval-79-Copy-10" cx="124.076688" cy="40.6692823" rx="2.14591842" ry="2.15227554"></ellipse>
                    <ellipse id="Oval-76" stroke-width="2" cx="65.3387692" cy="65.54697" rx="60.3003077" ry="60.4789428"></ellipse>
                    <path d="M50.3846154,148.106029 L65.2393992,67.9115646 L78.0312049,148.106029" id="Path-552" stroke-width="2"></path>
                    <ellipse id="Oval-77" fill="#348AF6" cx="64.9961538" cy="65.377551" rx="2.51923077" ry="2.53401361"></ellipse>
                    <path d="M119.411538,64.3639456 L12.5961538,66.3911565" id="Line" stroke-width="0.5" stroke-linecap="square"></path>
                    <path d="M64.9961538,120.112245 L67.0115385,12.670068" id="Line" stroke-width="0.5" stroke-linecap="square"></path>
                    <path d="M101.273077,104.908163 L30.7346154,25.8469388" id="Line" stroke-width="0.5" stroke-linecap="square"></path>
                    <path d="M28.7192308,103.894558 L102.280769,27.8741497" id="Line" stroke-width="0.5" stroke-linecap="square"></path>
                    <path d="M44.8423077,115.044218 L86.1576923,17.7380952" id="Line" stroke-width="0.5" stroke-linecap="square"></path>
                    <path d="M84.1423077,116.057823 L47.8653846,15.7108844" id="Line" stroke-width="0.5" stroke-linecap="square"></path>
                    <path d="M16.6269231,88.6904762 L114.373077,43.0782313" id="Line" stroke-width="0.5" stroke-linecap="square"></path>
                    <path d="M16.6269231,44.0918367 L114.373077,87.6768707" id="Line" stroke-width="0.5" stroke-linecap="square"></path>
                </g>
                <g id="shard" transform="translate(503.000000, 0.000000)" stroke="#4F77A8">
                    <path d="M80.3518438,262.518223 L58.874111,88.2377588 L57.6091579,98.5590794 L73.46912,263.238626" id="Path-556" stroke-width="1.5"></path>
                    <path d="M3.05777304,249.376772 L23.8888311,246.548994 L57.0221833,246.734095 L67.3761426,250.020469 L78.1734611,249.376772" id="Path-557" stroke-width="0.8"></path>
                    <path d="M1.37015202,259.684464 L26.0176339,257.041787 L58.2266601,257.041787 L70.4953125,260.135855 L80.0889195,259.340632" id="Path-557-Copy-16" stroke-width="0.8"></path>
                    <path d="M4.3377986,239.813035 L23.8114779,237.213031 L56.9448301,237.398132 L67.2987894,240.684506 L76.9801735,240.393277" id="Path-557-Copy-2" stroke-width="0.8"></path>
                    <path d="M5.26717508,230.205794 L23.8114779,227.877069 L56.9448301,228.06217 L67.2987894,231.348544 L75.9680405,230.865009" id="Path-557-Copy-3" stroke-width="0.8"></path>
                    <path d="M6.49970803,220.875928 L23.8114779,218.55219 L56.9448301,218.737291 L67.2987894,222.023665 L74.8526749,221.676739" id="Path-557-Copy-4" stroke-width="0.8"></path>
                    <path d="M7.85680245,211.307204 L23.8888311,209.094305 L57.0221833,209.279406 L67.3761426,212.56578 L73.7028986,212.171193" id="Path-557-Copy" stroke-width="0.8"></path>
                    <path d="M9.05094316,201.49408 L23.8114779,199.758342 L55.5479215,200.051788 L67.2987894,203.229817 L72.3967094,202.887325" id="Path-557-Copy-7" stroke-width="0.8"></path>
                    <path d="M10.1782529,192.158117 L23.8114779,190.422379 L55.2788915,190.998465 L67.2987894,193.893855 L71.3865671,193.893855" id="Path-557-Copy-6" stroke-width="0.8"></path>
                    <path d="M11.4625443,182.521504 L23.8114779,181.097501 L54.6498276,181.430018 L65.6541797,184.122572 L70.3388856,184.568976" id="Path-557-Copy-5" stroke-width="0.8"></path>
                    <path d="M12.470696,173.005151 L23.8888311,171.639615 L53.6084026,171.639615 L64.6704854,174.891907 L69.2994514,175.452474" id="Path-557-Copy-11" stroke-width="0.8"></path>
                    <path d="M13.8852365,163.399296 L25.1435462,162.191151 L53.6084026,162.490694 L68.154794,165.420443" id="Path-557-Copy-10" stroke-width="0.8"></path>
                    <path d="M15.0987156,153.962747 L25.7691975,152.752663 L52.7680393,152.752663 L67.2987894,156.439165" id="Path-557-Copy-9" stroke-width="0.8"></path>
                    <path d="M16.5863436,144.287894 L26.1172871,143.642812 L52.4910464,143.642812 L65.8353342,146.515202" id="Path-557-Copy-8" stroke-width="0.8"></path>
                    <path d="M17.5350584,135.297888 L26.8532805,134.184926 L52.1330033,134.184926 L64.7663238,137.012704" id="Path-557-Copy-15" stroke-width="0.8"></path>
                    <path d="M18.8253219,125.671666 L27.4412504,124.848964 L51.4496215,124.848964 L63.738265,127.525724" id="Path-557-Copy-14" stroke-width="0.8"></path>
                    <path d="M19.5397018,116.513461 L28.0423022,115.513001 L51.0432325,115.513001 L62.5347395,117.841727" id="Path-557-Copy-13" stroke-width="0.8"></path>
                    <path d="M20.5957727,107.352485 L28.6319785,106.188123 L50.5668844,106.188123 L61.4589038,107.92386" id="Path-557-Copy-12" stroke-width="0.8"></path>
                    <path d="M22.1089955,97.5446262 L29.3675453,96.7302372 L50.1474137,96.7302372 L60.275001,98.4659747" id="Path-557-Copy-19" stroke-width="0.8"></path>
                    <path d="M23.1979458,87.010772 L29.5748763,86.1963829 L50.3547447,86.1963829 L57.0604762,87.010772" id="Path-557-Copy-20" stroke-width="0.8"></path>
                    <path d="M24.5310896,77.4925172 L29.5748763,76.9158794 L50.3547447,76.9158794 L56.0267892,77.7837482" id="Path-557-Copy-21" stroke-width="0.8"></path>
                    <path d="M24.6103795,87.1774942 L28.6687867,85.3285142 L49.4486551,85.3285142 L56.1060791,87.4687252" id="Path-557-Copy-22" stroke-width="0.8"></path>
                    <path d="M25.3608179,70.8558405 L55.0644637,70.8558405" id="Path-580-Copy-2" stroke-width="0.8"></path>
                    <path d="M26.5256667,63.8634878 L53.8996149,63.8634878" id="Path-580-Copy-3" stroke-width="0.8"></path>
                    <path d="M29.8074463,54.5403508 L53.3171904,54.5403509" id="Path-580-Copy-4" stroke-width="0.8"></path>
                    <path d="M0.786753794,262.890957 L27.3515264,57.2460873 L30.8540358,53.4742388 L33.3816668,30.8376054 L18.2168074,265.650686" id="Path-553" stroke-width="1.5"></path>
                    <path d="M25.6498117,266.464927 L35.9980265,17.3008476 L46.1870414,49.9273932 L53.3945437,197.819769 L50.9323661,266.913148" id="Path-554" stroke-width="1.5"></path>
                    <path d="M58.9589141,265.988728 L44.9050251,0.516509385 L49.4916175,24.0908401 L57.3782358,90.9887809 L55.2430587,98.3030415 L55.2430587,105.645012 L71.1010039,263.668211" id="Path-555" stroke-width="1.5"></path>
                    <path d="M0.928878348,262.426733 L18.3566476,265.066849 L25.765639,265.86263 L51.0035575,266.315605 L58.9148438,265.227906 L71.2354771,262.915498 L73.8791643,262.474267 L80.2813058,261.933494" id="Path-1433"></path>
                </g>
                <g id="tower_bridge" transform="translate(151.000000, 156.000000)">
                    <path d="M271.431122,95.9952297 L257.659638,93.1770855 L244.030652,87.7404192 L230.150991,78.4814224 L218.060376,69.2606142 L208.60633,60.8487097 L197.943671,50.2509425 L197.943671,31.1692333 L195.423487,18.244132 L193.301698,29.0272006 L189.152124,10.2210568 L184.92496,30.8602529 L182.982225,17.874397 L180.67989,31.0147431 L180.282241,93.9677629 L180.282241,96.7251525 L139.812394,73.9421891 L139.812394,82.7107193 L150.866896,89.3943863 L163.237818,96.7251553 L175.03932,103.503798 L175.039319,110.52078 L202.884066,110.221347 L202.884066,106.904149 L271.431122,106.904149 L271.431122,95.9952297 Z" id="Path-581" stroke="#4F77A8" stroke-width="2"></path>
                    <path d="M197.850413,51.8231841 L211.198882,68.8422756 L221.727251,79.5472312 L232.677143,88.22472 L244.396221,94.3687431 L254.569467,96.8562088 L264.652439,97.1157176 L271.647478,96.5168511" id="Path-583" stroke="#4F77A8"></path>
                    <path d="M203.811634,59.0781479 L203.811634,97.2551349" id="Path-584" stroke="#4F77A8"></path>
                    <path d="M218.866042,69.6545777 L218.866042,97.2551346" id="Path-585" stroke="#4F77A8"></path>
                    <path d="M232.443213,81.7413392 L232.443213,97.2551343" id="Path-586" stroke="#4F77A8"></path>
                    <path d="M246.759003,90.0083006 L246.759003,97.255134" id="Path-587" stroke="#4F77A8"></path>
                    <path d="M260.32133,94.4060637 L260.32133,97.2551343" id="Path-588" stroke="#4F77A8"></path>
                    <path d="M206.89077,59.4548263 L220.680532,78.284838" id="Path-589" stroke="#4F77A8"></path>
                    <path d="M220.696572,71.3601186 L206.741185,63.0376102" id="Path-590" stroke="#4F77A8"></path>
                    <path d="M220.928596,71.6487029 L235.278274,89.556547" id="Path-591" stroke="#4F77A8"></path>
                    <path d="M235.245074,82.0529233 L220.647705,78.3885547" id="Path-592" stroke="#4F77A8"></path>
                    <path d="M249.598483,95.6081363 L235.39354,82.2256399" id="Path-593" stroke="#4F77A8"></path>
                    <path d="M249.420548,90.0130742 L235.576697,89.5886601" id="Path-594" stroke="#4F77A8"></path>
                    <path d="M265.084745,97.5875 L249.680549,90.0994325" id="Path-595" stroke="#4F77A8"></path>
                    <path d="M263.665405,94.4598749 L249.754782,95.5925137" id="Path-596"></path>
                    <path d="M197.895923,52.0852966 L197.778792,96.7971901 L271.652701,97.637773 L180.313003,96.7971892" id="Path-597" stroke="#4F77A8" stroke-width="2"></path>
                    <path d="M180.50494,79.2857143 L198.000371,79.2857143" id="Path-598" stroke="#4F77A8" stroke-width="2"></path>
                    <path d="M180.534036,76.5446535 L197.790729,76.4335594" id="Path-599" stroke="#4F77A8" stroke-width="2"></path>
                    <path d="M180.631023,66.5583376 L197.918305,66.6108469" id="Path-600" stroke="#4F77A8" stroke-width="2"></path>
                    <path d="M180.423992,63.4385903 L197.820198,63.6698917" id="Path-601" stroke="#4F77A8" stroke-width="2"></path>
                    <path d="M180.714582,52.0980068 L197.899653,52.1060749" id="Path-602" stroke="#4F77A8" stroke-width="2"></path>
                    <path d="M180.490951,48.3265306 L197.949452,48.3265306" id="Path-603" stroke="#4F77A8" stroke-width="2"></path>
                    <path d="M189.282684,9.84481239 L189.299843,0.457797025" id="Path-604" stroke="#4F77A8" stroke-width="2"></path>
                    <path d="M191.269436,1.45612776 L187.44962,1.45612776" id="Path-605" stroke="#4F77A8" stroke-width="2"></path>
                    <path d="M91.1529399,48.3265306 L180.57395,48.3265306" id="Path-632" stroke="#4F77A8" stroke-width="2"></path>
                    <path d="M91.1902428,43.0806011 L180.674668,43.3461854" id="Path-633" stroke="#4F77A8" stroke-width="2"></path>
                    <path d="M0.337628968,95.9952297 L14.1091121,93.1770855 L27.7380982,87.7404192 L41.6177597,78.4814224 L53.7083743,69.2606142 L63.1624203,60.8487097 L73.8250801,50.2509425 L73.8250801,31.1692333 L76.3452637,18.244132 L78.4670525,29.0272006 L82.6166266,10.2210568 L86.8437908,30.8602529 L88.7865256,17.874397 L91.0888603,31.0147431 L91.4865092,93.9677629 L91.4865092,96.7251525 L132.637818,73.9548355 L132.637818,82.5047623 L120.78554,90.0556168 L109.247511,96.7251553 L96.7294296,103.548512 L96.7294312,110.52078 L68.8846845,110.221347 L68.8846851,106.279907 L0.337628176,106.904149 L0.337628968,95.9952297 Z" id="Path-581" stroke="#4F77A8" stroke-width="2"></path>
                    <path d="M73.9183373,51.8231841 L60.569869,68.8422756 L50.0414997,79.5472312 L39.0916076,88.22472 L27.3725298,94.3687431 L17.199284,96.8562088 L7.11631122,97.1157176 L0.121272171,96.5168511" id="Path-583" stroke="#4F77A8"></path>
                    <path d="M59.1468144,64.1061585 L59.1468144,97.2551349" id="Path-584" stroke="#4F77A8"></path>
                    <path d="M47.8448753,72.7964257 L47.8448753,97.2551346" id="Path-585" stroke="#4F77A8"></path>
                    <path d="M29.7617729,85.4352624 L29.7617729,97.2551343" id="Path-586" stroke="#4F77A8"></path>
                    <path d="M16.1994459,92.0375 L16.199446,97.2551342" id="Path-587" stroke="#4F77A8"></path>
                    <path d="M64.8779805,59.4548263 L51.0882189,78.284838" id="Path-589" stroke="#4F77A8"></path>
                    <path d="M51.0721787,71.3601186 L65.0275651,63.0376102" id="Path-590" stroke="#4F77A8"></path>
                    <path d="M50.8401547,71.6487029 L36.4904767,89.556547" id="Path-591" stroke="#4F77A8"></path>
                    <path d="M36.5236762,82.0529233 L51.1210455,78.3885547" id="Path-592" stroke="#4F77A8"></path>
                    <path d="M22.1702679,95.6081363 L36.3752107,82.2256399" id="Path-593" stroke="#4F77A8"></path>
                    <path d="M22.3482027,90.0130742 L36.1920535,89.5886601" id="Path-594" stroke="#4F77A8"></path>
                    <path d="M8.01978736,96.831473 L22.0882015,90.0994325" id="Path-595" stroke="#4F77A8"></path>
                    <path d="M8.10334585,94.4598749 L22.0139688,95.5925137" id="Path-596" stroke="#4F77A8"></path>
                    <path d="M73.8728278,52.0852966 L73.9899589,96.7971901 L0.116049765,97.637773 L91.8981462,97.6377746" id="Path-597" stroke="#4F77A8" stroke-width="2"></path>
                    <path d="M91.2638109,79.2857143 L73.7683797,79.2857143" id="Path-598" stroke="#4F77A8" stroke-width="2"></path>
                    <path d="M91.2347147,76.5446535 L73.978022,76.4335594" id="Path-599" stroke="#4F77A8" stroke-width="2"></path>
                    <path d="M91.1377271,66.5583376 L73.8504461,66.6108469" id="Path-600" stroke="#4F77A8" stroke-width="2"></path>
                    <path d="M91.3447582,63.4385903 L73.9485527,63.6698917" id="Path-601" stroke="#4F77A8" stroke-width="2"></path>
                    <path d="M91.0541686,52.0980068 L73.8690975,52.1060749" id="Path-602" stroke="#4F77A8" stroke-width="2"></path>
                    <path d="M91.0038097,48.3265306 L73.9802601,48.3265306" id="Path-603" stroke="#4F77A8" stroke-width="2"></path>
                    <path d="M82.4860665,9.84481239 L82.4689071,0.457797025" id="Path-604" stroke="#4F77A8" stroke-width="2"></path>
                    <path d="M80.4993142,1.45612776 L84.3191308,1.45612776" id="Path-605" stroke="#4F77A8" stroke-width="2"></path>
                    <path d="M77.9833795,29.8818648 L77.9833795,97.2551342" id="Path-634" stroke="#4F77A8"></path>
                    <path d="M87.193502,31.063852 L87.193502,97.2551342" id="Path-635" stroke="#4F77A8"></path>
                    <path d="M82.4377482,13.4125 L82.4377483,96.9771505" id="Path-635-Copy" stroke="#4F77A8"></path>
                    <path d="M184.894429,33.844523 L185.060285,97.043323" id="Path-637" stroke="#4F77A8"></path>
                    <path d="M193.410677,30.548464 L193.199902,96.8136204" id="Path-638" stroke="#4F77A8"></path>
                    <path d="M189.20173,13.4125 L189.20173,96.7901564" id="Path-638-Copy" stroke="#4F77A8"></path>
                    <path d="M181.179661,32.375 L197.776271,32.375" id="Line" stroke="#4F77A8" stroke-width="2" stroke-linecap="square"></path>
                    <path d="M74.2237288,33.3 L90.820339,33.3" id="Line" stroke="#4F77A8" stroke-width="2" stroke-linecap="square"></path>
                </g>
                <g id="gerkin" transform="translate(0.000000, 96.000000)" stroke="#4F77A8" stroke-width="2">
                    <path d="M3.63378906,169.794317 L2.00585938,156.404349 L0.790039063,142.777355 L0.790039063,130.706697 L0.095703125,114.46459 L0.530273438,96.0706467 L2.515625,72.003768 L5.62011719,50.6068515 L9.59277344,37.2413694 L14.7138672,21.6192501 L21.984375,8.17639196 L25.7167969,3.22432706 L27.6064453,1.24291344 L29.8320313,0.295791851 L32.0576172,0.295791851 L34.5332031,2.24586329 L40.8496094,11.7043464 L46.3173828,22.8935057 L48.5537109,28.0443976 L53.6757813,45.0318607 L56.984375,63.1544985 L59.7832031,88.0539039 L60.8564453,110.463565 L60.6064453,132.667542 L59.4013672,150.689298 L58.1855469,160.604201 L56.6689453,169.480895 L3.63378906,169.794317 Z" id="Path-543"></path>
                    <path d="M14.0507812,169.546518 L5.67578125,149.220133 L3.14746094,141.492326 L0.901367188,133.493213" id="Path-544"></path>
                    <path d="M24.0917969,169.191959 L13.2626953,149.01445 L7.96777344,136.672486 L3.90820312,126.77913 L0.262695312,114.206997" id="Path-545"></path>
                    <path d="M45.515625,169.662092 L34.5996094,149.941003 L21.3183594,127.00832 L12.0302734,110.237313 L7.515625,99.8983107 L4.3046875,89.7434435 L2.40527344,78.2163763 L2.40527344,74.8314205" id="Path-546"></path>
                    <path d="M52.5487914,169.909178 L41.8476195,151.23535 C41.8476195,151.23535 34.9054125,139.980981 31.5937113,133.746092 C27.6466228,126.314969 20.0712504,110.237313 20.0712504,110.237313 L15.556602,99.8983107 L12.3456645,89.7434435 L8.88251689,78.4512579 L4.37084954,59.7593603 C4.37084954,59.7593603 3.62454831,56.7962469 3.48116254,55.1804199 C3.32798597,53.4542597 3.48116254,49.7333984 3.48116254,49.7333984 L4.37084958,37.5234375" id="Path-546-Copy" transform="translate(27.980938, 103.716308) scale(-1, 1) translate(-27.980938, -103.716308) "></path>
                    <path d="M38.0946923,107.612581 L25.5499075,85.7900596 L15.5248595,65.6168927 L4.51480263,34.5364706 L1.85817571,22.6679196 L0.776504249,13.3010883 L0.776504249,8.24126621" id="Path-546-Copy-3" transform="translate(19.435598, 57.926924) scale(-1, 1) translate(-19.435598, -57.926924) "></path>
                    <path d="M60.3567451,169.317143 L49.2463593,152.530771 L43.4053334,139.071498 C43.4053334,139.071498 38.6811951,125.775191 38.0225809,121.773505 C37.1603013,116.534366 36.1591797,104.655624 36.1591797,104.655624" id="Path-546-Copy-2" transform="translate(48.257962, 136.986384) scale(-1, 1) translate(-48.257962, -136.986384) "></path>
                    <path d="M56.3242187,169.046876 L40.6416016,138.770508 L24.2978516,111.60498 L15.53125,94.0302734 L9.72851562,78.8398438 L6.33984375,70.6904297 C6.33984375,70.6904297 4.21484374,64.5463868 4.21484373,60.9580078 C4.21484372,57.3696288 4.21484373,62.8642578 4.21484373,62.8642578" id="Path-547"></path>
                    <path d="M59.1376953,152.079127 L52.6269531,127.614595 L46.8984375,113.357819 L38.9775391,98.3174894 L28.2763672,81.0234605 L19.6171875,65.0702895 L16.378418,57.5659182 C16.378418,57.5659182 13.2873467,50.9559692 12.8681641,49.1943362 C12.2860447,46.7479546 10.859375,41.8491213 10.859375,41.8491213 L10.859375,38.1074221 C10.859375,35.9128643 11.4501953,31.6487486 11.4501953,31.6487486" id="Path-548"></path>
                    <path d="M17.4232713,16.3755097 C17.4232713,16.3755097 16.5774708,22.858343 16.3808594,26.0937495 C16.2300001,28.5762663 16.3808594,33.5292796 16.3808594,33.5292796 C16.3808594,33.5292796 16.9699472,37.9118765 17.4232713,39.6147466 C17.6538665,40.4809561 18.586914,42.9287114 18.586914,42.9287114 C18.586914,42.9287114 19.4841242,45.4463139 20.25,47.1889653 C21.2748143,49.5207977 23.8046875,53.4599696 23.8046875,53.4599696 L32.1376953,68.4895257 L40.2978516,82.6601102 L47.5683594,97.3870183 L54.2314453,111.786792 L59.1787109,127.820278 L60.3945312,132.761569" id="Path-549"></path>
                    <path d="M60.3427734,99.1314067 L54.0712891,78.1811163 L44.1962891,56.9693146 L35.9609375,41.6782471 L28.2353516,24.6251613 C28.2353516,24.6251613 26.821431,20.7487686 26.3254395,18.927002 C25.9018347,17.3711107 25.4765625,14.4921876 25.4765625,14.4921876 C25.4765625,14.4921876 24.7391517,10.9370145 24.6430664,8.97387705 C24.5809486,7.70473668 24.6430664,4.44018555 24.6430664,4.44018555" id="Path-550"></path>
                    <path d="M58.1269531,77.5787588 L52.0507812,59.0976447 L46.5058594,47.3864422 L40.1894531,35.1414431 L34.704834,25.1276851 C34.704834,25.1276851 33.0138336,21.5804177 32.486084,20.3645015 C31.5668935,18.2467195 30.1201172,13.8434504 30.1201172,13.8434504 L28.6445312,8.65044248 C28.6445312,8.65044248 28.3166504,7.0403005 28.3166504,6.09545899 C28.3166504,5.33593751 28.6445312,3.53735353 28.6445312,3.53735353 L29.4150391,0.498536597" id="Path-551"></path>
                </g>
                <g id="bigben" transform="translate(896.000000, 47.000000)" stroke="#4F77A8">
                    <path d="M16.0906918,134.329768 L16.0906918,152.894185" id="Path-1780"></path>
                    <path d="M20.3841508,63 L20.3841508,81.5644175" id="Path-1780-Copy-4"></path>
                    <path d="M19.5480494,134.413336 L19.5480494,152.977753" id="Path-1780-Copy"></path>
                    <path d="M24.3841508,63 L24.3841508,81.5644175" id="Path-1780-Copy-5"></path>
                    <path d="M26.8469154,134.413336 L26.8469154,152.977753" id="Path-1780-Copy-2"></path>
                    <path d="M30.304273,134.413336 L30.304273,152.977753" id="Path-1780-Copy-3"></path>
                    <path d="M16.0906918,162.164731 L16.0906918,180.729149" id="Path-1780"></path>
                    <path d="M19.5480494,162.248299 L19.5480494,180.812717" id="Path-1780-Copy"></path>
                    <path d="M26.8469154,162.248299 L26.8469154,180.812717" id="Path-1780-Copy-2"></path>
                    <path d="M30.304273,162.248299 L30.304273,180.812717" id="Path-1780-Copy-3"></path>
                    <path d="M16.0906918,193.632732 L16.0906918,212.197149" id="Path-1780"></path>
                    <path d="M19.5480494,193.7163 L19.5480494,212.280717" id="Path-1780-Copy"></path>
                    <path d="M26.8469154,193.7163 L26.8469154,212.280717" id="Path-1780-Copy-2"></path>
                    <path d="M30.304273,193.7163 L30.304273,212.280717" id="Path-1780-Copy-3"></path>
                    <path d="M2.32428612,134.347338 L0.990262287,131.505656 L0.62186763,90.2939238 L3.89015099,81.078294 L8.09180085,75.4199091 L9.67642309,72.4974142 L11.0021937,69.704955 L11.9865802,67.3694569 L12.3707311,64.6423828 L12.7706381,58.6658882 L13.0137335,46.1383915 L16.073435,41.1147565 L17.8073659,36.37911 L18.8000056,32.4192691 L20.4671603,25.7580673 L22.353401,12.8389944 L22.8868604,6.1910166 L23.8795002,16.6680651 L25.0049421,25.329758 L27.7232595,35.3895171 L29.4654437,41.1096139 L32.1965161,46.1383915 L32.5093889,58.6218083 L32.8425197,63.208318 L33.360223,67.0065327 L34.5449382,70.0678792 L36.1453166,73.0484125 L37.4793405,76.0443738 L41.4003801,80.7072885 L44.2815115,90.5628109 L44.2740085,131.474065 L43.0495277,134.184977 L42.4511678,218.842464 L2.49760418,218.842464 L2.32428612,134.347338 Z" id="Path-1778" stroke-width="2"></path>
                    <ellipse id="Oval-299" stroke-width="2" cx="22.6212561" cy="108.697632" rx="13.4452796" ry="13.1651854"></ellipse>
                    <path d="M22.039684,108.885981 L22.2295086,109.586024 L22.2034358,110.132982 L21.9063192,110.270732 C21.9063192,110.270732 22.076636,110.495416 22.1617945,110.607759 L22.0544086,110.942766 L22.1274685,111.331587 L22.0619658,112.099623 C22.0615413,112.1046 21.4664589,112.234122 21.4664589,112.234122 L21.3997765,112.6729 L21.7239038,113.128117 L21.920012,113.622087 C21.9622883,113.622087 21.8053107,113.974083 21.8053107,113.974083 C21.8053107,113.974083 21.9755651,114.179605 22.0606923,114.282366 L22.3118534,114.019816 L22.3348312,113.604455 L22.8090174,113.140147 L23.1561224,112.85023 L23.1728165,112.436889 C23.1728165,112.436889 22.9989982,112.293201 22.9120891,112.221357 L22.667962,111.947787 L22.8587244,111.354821 C22.8587244,111.354821 22.9463213,111.120585 22.9901197,111.003467 L23.2268377,110.569556 L23.2445634,110.33676 L23.096474,110.167236 L23.096474,109.729376 L23.524986,109.560954 C23.524986,109.560954 29.3634661,112.55967 32.2827062,114.059028 C32.2827062,114.059028 32.5113446,114.013663 32.6256639,113.99098 C32.6298287,113.990153 32.381745,113.593435 32.381745,113.593435 L23.8420793,108.847779 L23.6813286,108.300913 L23.4176001,108.020087 L23.7897462,107.458804 L23.8628062,107.016719 L23.6176474,106.734884 L23.2431566,106.440743 L22.8123937,106.686947 L22.5692982,106.941325 L22.5692982,107.409857 C22.5692982,107.409857 22.6770906,107.579442 22.7309867,107.664234 L22.4065781,108.084738 L21.6906095,107.636776 C21.6906095,107.636776 21.4771506,107.368562 21.3704212,107.234456 L21.1420503,106.780341 L20.7522722,107.210028 L20.3527404,107.258975 L20.4277698,107.680489 L20.3163511,108.306147 C20.3163511,108.306147 20.6618807,108.133829 21.1740316,108.306147 C21.6861826,108.478466 22.039684,108.885981 22.039684,108.885981 Z" id="Path-1779" fill="#4F77A8"></path>
                    <path d="M2.45333679,182.630357 L42.4050246,182.630357" id="Line" stroke-linecap="square"></path>
                    <path d="M2.45333679,156.0375 L42.4050246,156.0375" id="Line-Copy-29" stroke-linecap="square"></path>
                    <path d="M0.883791908,127.098214 L44.1276296,127.098214" id="Line-Copy-31" stroke-linecap="square"></path>
                    <path d="M2.45333679,187.323214 L42.4050246,187.323214" id="Line-Copy-28" stroke-linecap="square"></path>
                    <path d="M2.45333679,160.730357 L42.4050246,160.730357" id="Line-Copy-30" stroke-linecap="square"></path>
                    <path d="M0.883791908,131.791071 L44.1276296,131.791071" id="Line-Copy-32" stroke-linecap="square"></path>
                    <path d="M1.20790307,90.4726994 L44.4517408,90.4726994" id="Line-Copy-33" stroke-linecap="square"></path>
                    <path d="M2.5,85.7721105 L42.5,85.7721105" id="Line-Copy-34" stroke-linecap="square"></path>
                    <path d="M12.5,46.3910714 L31.7837685,46.3910714" id="Line" stroke-linecap="square"></path>
                    <path d="M14.5,43.4835632 L30.5,43.4835632" id="Line" stroke-linecap="square"></path>
                    <path d="M22.5,6.58259271 L22.5,0.188074077" id="Line" stroke-linecap="square"></path>
                </g>
            </g>
            <path d="M106.761497,219.984575 L100.191696,216.203381 L99.7021352,215.951553 L99.3455992,215.951553 L98.1467423,217.078675 L98,217.481398 L98.3790633,217.949942 L106.085803,224.185357 L112.378983,231.929726 L112.713244,232.249639 L112.992885,232.11674 L113.810035,231.295688 L114.445331,230.618232 L110.355928,223.337876 L111.417356,222.879149 L119.315137,215.027933 L125.519341,221.535941 L133.794927,231.951624 L135.212891,230.507232 L128.38585,213.435791 L129.638823,212.114481 L129.704517,211.508509 L129.384226,211.06652 L129.034234,210.867801 L128.464633,210.803365 L127.651635,211.551927 L126.203593,208.017905 L132.039054,202.188611 L133.465575,200.693626 L133.991255,200.058708 L134.412038,199.374078 L134.827786,198.516278 L135.028456,197.801003 L135.028456,197.263997 L135.028456,196.763991 L134.827786,196.085213 L134.336716,195.567966 L133.891581,195.350873 L133.261445,195.154923 L132.55542,195.1996 L131.807236,195.364716 L131.122984,195.577279 L130.389524,195.908896 L129.653044,196.367497 L122.068002,203.939576 L118.912036,202.922952 L119.593142,202.278091 L119.747058,201.816343 L119.682622,201.282987 L119.108993,200.819855 L118.726783,200.754035 L118.329472,200.898134 L117.203608,202.092461 L99.5048007,195 L98.2461646,196.323198 L108.476595,204.553981 L115.040984,210.955897 L107.336007,218.673837 L106.761497,219.984575 Z" id="Path-1302" stroke="#4F77A8" stroke-width="2" sketch:type="MSShapeGroup"></path>
            <path d="M251.34796,154.703245 L305.590563,155.050781 L309.351498,153.853712 L312.007861,151.825968 C312.007861,151.825968 313.101875,150.707739 313.574244,150.024302 C313.980145,149.437031 314.642671,148.013845 314.642671,148.013845 L316.129803,144.111919 L316.129803,142.430589 L316.129803,140.219872 C316.129803,140.219872 316.00006,138.764078 315.877008,138.142512 C315.69054,137.200613 315.201243,135.529479 315.201243,135.529479 C315.201243,135.529479 314.842683,134.456354 314.277399,133.511613 C314.213466,133.404764 313.574244,132.339913 313.574244,132.339913 C313.574244,132.339913 312.794419,131.353869 312.433525,130.892743 C312.049655,130.40226 311.079301,129.519885 311.079301,129.519885 C311.079301,129.519885 309.999377,128.798027 309.351498,128.421599 C308.72837,128.05955 307.26628,127.304454 307.26628,127.304454 L305.590561,126.754861 C305.590561,126.754861 303.370811,126.356137 302.881836,126.356137 L300.559814,126.356137 C300.559814,126.356137 297.789609,126.93953 297.201416,127.304454 C296.508125,127.734583 294.949707,129.148438 294.949707,129.148438 L292.725434,131.50632 L291.388272,126.754861 L289.040831,123.708755 L285.707356,120.535129 L281.575536,118.708543 L277.044991,118 L272.105845,118.469668 L268.072808,120.774902 L264.419636,124.338272 L262.612806,128.421599 L261.654612,133.511613 L262.27425,136.177854 L258.586953,134.591041 L255.64861,133.811554 L253.461915,133.261962 L250.485855,133.27184 L247.570861,133.741508 L245.184355,135.161064 L243.065461,137.393782 L241.797448,140.219872 L241,143.40607 L241,146.640762 L241.797448,149.415664 L243.065461,151.082402 L245.520666,153.218807 L248.388065,154.38714 L251.34796,154.703245 Z" id="Path-1303-Copy-2" stroke="#4F77A8" stroke-width="3" sketch:type="MSShapeGroup"></path>
            <path d="M642.34796,191.703245 L696.590563,192.050781 L700.351498,190.853712 L703.007861,188.825968 C703.007861,188.825968 704.101875,187.707739 704.574244,187.024302 C704.980145,186.437031 705.642671,185.013845 705.642671,185.013845 L707.129803,181.111919 L707.129803,179.430589 L707.129803,177.219872 C707.129803,177.219872 707.00006,175.764078 706.877008,175.142512 C706.69054,174.200613 706.201243,172.529479 706.201243,172.529479 C706.201243,172.529479 705.842683,171.456354 705.277399,170.511613 C705.213466,170.404764 704.574244,169.339913 704.574244,169.339913 C704.574244,169.339913 703.794419,168.353869 703.433525,167.892743 C703.049655,167.40226 702.079301,166.519885 702.079301,166.519885 C702.079301,166.519885 700.999377,165.798027 700.351498,165.421599 C699.72837,165.05955 698.26628,164.304454 698.26628,164.304454 L696.590561,163.754861 C696.590561,163.754861 694.370811,163.356137 693.881836,163.356137 L691.559814,163.356137 C691.559814,163.356137 688.789609,163.93953 688.201416,164.304454 C687.508125,164.734583 685.949707,166.148438 685.949707,166.148438 L683.725434,168.50632 L682.388272,163.754861 L680.040831,160.708755 L676.707356,157.535129 L672.575536,155.708543 L668.044991,155 L663.105845,155.469668 L659.072808,157.774902 L655.419636,161.338272 L653.612806,165.421599 L652.654612,170.511613 L653.27425,173.177854 L649.586953,171.591041 L646.64861,170.811554 L644.461915,170.261962 L641.485855,170.27184 L638.570861,170.741508 L636.184355,172.161064 L634.065461,174.393782 L632.797448,177.219872 L632,180.40607 L632,183.640762 L632.797448,186.415664 L634.065461,188.082402 L636.520666,190.218807 L639.388065,191.38714 L642.34796,191.703245 Z" id="Path-1303-Copy-3" stroke="#4F77A8" stroke-width="3" sketch:type="MSShapeGroup"></path>
            <path d="M807.34796,112.703245 L861.590563,113.050781 L865.351498,111.853712 L868.007861,109.825968 C868.007861,109.825968 869.101875,108.707739 869.574244,108.024302 C869.980145,107.437031 870.642671,106.013845 870.642671,106.013845 L872.129803,102.111919 L872.129803,100.430589 L872.129803,98.219872 C872.129803,98.219872 872.00006,96.7640777 871.877008,96.142512 C871.69054,95.2006134 871.201243,93.5294791 871.201243,93.5294791 C871.201243,93.5294791 870.842683,92.4563535 870.277399,91.5116134 C870.213466,91.4047644 869.574244,90.3399132 869.574244,90.3399132 C869.574244,90.3399132 868.794419,89.3538686 868.433525,88.8927433 C868.049655,88.4022597 867.079301,87.5198852 867.079301,87.5198852 C867.079301,87.5198852 865.999377,86.7980273 865.351498,86.4215986 C864.72837,86.0595501 863.26628,85.3044535 863.26628,85.3044535 L861.590561,84.7548609 C861.590561,84.7548609 859.370811,84.3561373 858.881836,84.3561373 L856.559814,84.3561373 C856.559814,84.3561373 853.789609,84.9395298 853.201416,85.3044538 C852.508125,85.7345827 850.949707,87.1484375 850.949707,87.1484375 L848.725434,89.50632 L847.388272,84.7548613 L845.040831,81.7087551 L841.707356,78.5351291 L837.575536,76.708543 L833.044991,76 L828.105845,76.4696679 L824.072808,78.7749022 L820.419636,82.3382717 L818.612806,86.4215986 L817.654612,91.5116134 L818.27425,94.1778543 L814.586953,92.5910413 L811.64861,91.8115543 L809.461915,91.261962 L806.485855,91.2718403 L803.570861,91.7415082 L801.184355,93.1610637 L799.065461,95.3937823 L797.797448,98.219872 L797,101.40607 L797,104.640762 L797.797448,107.415664 L799.065461,109.082402 L801.520666,111.218807 L804.388065,112.38714 L807.34796,112.703245 Z" id="Path-1303-Copy-4" stroke="#4F77A8" stroke-width="3" sketch:type="MSShapeGroup"></path>
        </g>
    </g>
</svg>